<svg width="150" height="140" viewBox="0 0 150 140" fill="none" xmlns="http://www.w3.org/2000/svg">
<path d="M83.9914 98.4647C83.706 96.3476 79.2816 95.1455 79.2281 100.438C77.6582 105.839 80.798 82.5503 81.3867 84.6674C81.583 86.7307 83.6168 83.0527 83.3135 83.0527C84.7585 88.0764 84.9905 93.3513 83.9914 98.4467V98.4647Z" fill="#C7C7C7"/>
<path d="M88.3266 98.4288H83.3313C81.8863 93.4051 81.8863 88.0764 83.3313 83.0706H88.3266C89.7716 88.0943 89.7716 93.423 88.3266 98.4288Z" fill="#F7F7F7"/>
<path d="M88.7012 84.5598C88.5942 84.0574 88.4693 83.555 88.3265 83.0706H83.3313C83.1886 83.573 83.0637 84.0574 82.9567 84.5598H88.7012Z" fill="#E84646"/>
<path d="M82.8676 96.5987C82.9924 97.2088 83.153 97.8367 83.3314 98.4288H88.3266C88.505 97.8188 88.6478 97.2088 88.7905 96.5987H82.8676Z" fill="#E84646"/>
<g style="mix-blend-mode:multiply">
<path d="M88.3266 83.0706H86.6675C86.6675 83.0706 86.6675 83.1065 86.6675 83.1244V98.4288H88.3266C89.7717 93.4051 89.7717 88.0764 88.3266 83.0706Z" fill="#DBDBDB"/>
</g>
<path d="M66.0086 98.4647C66.294 96.3476 70.7184 95.1455 70.7719 100.438C72.3419 105.839 69.202 82.5503 68.6133 84.6674C68.417 86.7307 66.3833 83.0527 66.6865 83.0527C65.2415 88.0764 65.0096 93.3513 66.0086 98.4467V98.4647Z" fill="#C7C7C7"/>
<path d="M61.6734 98.4288H66.6686C68.1137 93.4051 68.1137 88.0764 66.6686 83.0706H61.6734C60.2283 88.0943 60.2283 93.423 61.6734 98.4288Z" fill="#F7F7F7"/>
<path d="M61.2096 96.5987C61.3345 97.2088 61.495 97.8367 61.6734 98.4288H66.6687C66.8471 97.8188 66.9898 97.2088 67.1325 96.5987H61.2096Z" fill="#E84646"/>
<path d="M67.0432 84.5598C66.9362 84.0574 66.8113 83.555 66.6686 83.0706H61.6733C61.5306 83.573 61.4057 84.0574 61.2987 84.5598H67.0432Z" fill="#E84646"/>
<g style="mix-blend-mode:multiply">
<path d="M66.6687 83.0706H65.1344C65.2058 83.3039 65.2593 83.555 65.2593 83.8421V98.4288H66.6687C68.1137 93.4051 68.1137 88.0764 66.6687 83.0706Z" fill="#DBDBDB"/>
</g>
<path d="M80.3342 95.0916L76.1061 119.798C75.9098 121.071 74.0901 121.071 73.8939 119.798L69.6658 95.0916C69.0235 91.0188 68.7024 86.9102 68.7024 82.7835V25.8542C68.7024 23.3064 68.863 20.7766 69.2198 18.2648C70.1118 11.7878 72.1099 0 75 0C77.8901 0 79.8525 11.716 80.7623 18.2109C81.1191 20.7766 81.2975 23.3602 81.2975 25.9618V82.7835C81.2975 86.9102 80.9764 91.0188 80.3342 95.0916Z" fill="#E84646"/>
<path d="M80.3342 90.1576L76.1061 111.957C75.9098 113.069 74.0901 113.069 73.8939 111.957L69.6658 90.1576C69.0235 86.5693 68.7024 82.9271 68.7024 79.3028V29.0837C68.7024 26.841 68.863 24.6162 69.2198 22.3914C70.1118 16.6679 72.1099 6.26169 75 6.26169C77.8901 6.26169 79.8525 16.5962 80.7623 22.3196C81.1191 24.5803 81.2975 26.8589 81.2975 29.1554V79.2849C81.2975 82.9271 80.9764 86.5513 80.3342 90.1397V90.1576Z" fill="#DBDBDB"/>
<g style="mix-blend-mode:overlay">
<path d="M70.9859 94.356C70.3615 90.4088 70.0582 86.3719 70.0582 82.3529V25.4235C70.0582 22.9476 70.2188 20.4716 70.5577 18.0674C72.0206 7.30231 73.6798 2.81686 74.5718 1.59682C75.446 2.8348 77.0872 7.32026 78.5858 18.0136C78.9248 20.4537 79.1032 22.9835 79.1032 25.5133V82.335C79.1032 86.354 78.7821 90.3909 78.1577 94.356L74.5896 115.24L71.0038 94.3381L70.9859 94.356Z" fill="#F7F7F7"/>
</g>
<path d="M77.1944 112.8H75H72.7878L52.3252 133.379V140L75 129.935L97.6749 140V133.379L77.1944 112.8Z" fill="#E84646"/>
<path d="M74.2685 116.389H75.7314L93.4467 134.205L74.9999 126.005L56.5532 134.205L74.2685 116.389Z" fill="#D6D6D6"/>
<g style="mix-blend-mode:overlay">
<path d="M54.1091 134.133L73.5371 114.594H76.4628L95.8908 134.133V137.255L75 127.979L54.1091 137.255V134.133Z" fill="#F7F7F7"/>
</g>
<path d="M75 136.986L73.662 97.8188C73.662 97.0832 74.2507 96.4732 75 96.4732C75.7314 96.4732 76.338 97.0652 76.338 97.8188L75 136.986Z" fill="white"/>
<path d="M136.995 91.0906C137.03 91.6647 137.869 91.6647 137.922 91.0906L138.386 84.7392C138.386 84.2368 137.976 83.8242 137.476 83.8242C136.977 83.8242 136.566 84.2368 136.566 84.7392L137.03 91.0906H136.995Z" fill="#C7C7C7"/>
<path d="M129.698 87.6637C129.734 88.2379 130.572 88.2379 130.626 87.6637L131.089 81.3123C131.089 80.8099 130.679 80.3973 130.18 80.3973C129.68 80.3973 129.27 80.8099 129.27 81.3123L129.734 87.6637H129.698Z" fill="#C7C7C7"/>
<path d="M89.2364 72.2696C89.2721 72.8438 90.1106 72.8438 90.1641 72.2696L90.6279 65.9182C90.6279 65.4159 90.2176 65.0032 89.7181 65.0032C89.2186 65.0032 88.8082 65.4159 88.8082 65.9182L89.2721 72.2696H89.2364Z" fill="#C7C7C7"/>
<path d="M150 86.5513V95.4325L105.81 74.5124H105.774L104.49 73.8844C99.9941 71.7673 95.1059 70.6549 90.1463 70.6549H86.6318C85.3116 70.6549 84.045 71.1214 83.0281 71.9826L81.2976 73.4538V31.3982L149.144 84.7751C149.679 85.2057 150 85.8516 150 86.5513Z" fill="#E84646"/>
<path d="M148.216 86.5513V92.6157L105.81 74.5124H105.774L104.49 73.8844C99.9941 71.7673 95.1059 70.6549 90.1463 70.6549H86.6318C85.3116 70.6549 84.045 71.1214 83.0281 71.9826L81.2976 73.4538V32.4926L148.038 86.1925C148.145 86.2643 148.216 86.4078 148.216 86.5513Z" fill="#D6D6D6"/>
<g style="mix-blend-mode:overlay">
<path d="M105.239 72.2696C100.547 70.0448 95.3378 68.8786 90.1463 68.8786H86.6318C85.383 68.8786 82.368 70.4037 81.2976 70.9958L81.6901 33.6768L148.038 86.1925C148.145 86.2822 148.216 86.4078 148.216 86.5513V92.6157L105.239 72.2696Z" fill="#F2F2F2"/>
</g>
<path d="M96.5508 76.6654C96.4438 78.0648 94.41 78.0648 94.3208 76.6654L93.1969 61.2175C93.1969 59.9795 94.1959 58.9747 95.4269 58.9747C96.6579 58.9747 97.6569 59.9795 97.6569 61.2175L96.533 76.6654H96.5508Z" fill="#F7F7F7"/>
<path d="M13.0054 91.0906C12.9697 91.6647 12.1313 91.6647 12.0777 91.0906L11.6139 84.7392C11.6139 84.2368 12.0242 83.8242 12.5237 83.8242C13.0233 83.8242 13.4336 84.2368 13.4336 84.7392L12.9697 91.0906H13.0054Z" fill="#C7C7C7"/>
<path d="M20.3021 87.6637C20.2664 88.2379 19.4279 88.2379 19.3744 87.6637L18.9105 81.3123C18.9105 80.8099 19.3208 80.3973 19.8204 80.3973C20.3199 80.3973 20.7302 80.8099 20.7302 81.3123L20.2664 87.6637H20.3021Z" fill="#C7C7C7"/>
<path d="M60.7458 72.2696C60.7101 72.8438 59.8716 72.8438 59.8181 72.2696L59.3542 65.9182C59.3542 65.4159 59.7646 65.0032 60.2641 65.0032C60.7636 65.0032 61.1739 65.4159 61.1739 65.9182L60.7101 72.2696H60.7458Z" fill="#C7C7C7"/>
<path d="M0 95.4505L45.5102 73.9023C49.9881 71.7852 54.8941 70.6728 59.8359 70.6728H63.3504C64.6705 70.6728 65.955 71.1393 66.9541 72.0005L68.6846 73.4717V31.4161L0.856327 84.7751C0.321123 85.2057 0 85.8516 0 86.5513V95.4505Z" fill="#E84646"/>
<path d="M1.78406 86.5513V92.6157L44.1901 74.5124H44.2258L45.5103 73.8844C50.006 71.7673 54.8942 70.6549 59.8537 70.6549H63.3683C64.6884 70.6549 65.9551 71.1214 66.972 71.9826L68.7025 73.4538V32.4926L1.96246 86.1925C1.85542 86.2643 1.78406 86.4078 1.78406 86.5513Z" fill="#D6D6D6"/>
<path d="M1.78406 86.5513C1.78406 86.4078 1.85542 86.2822 1.96246 86.1925L68.7025 33.2282L68.31 70.6369C67.2217 70.0448 64.6171 68.8786 63.3683 68.8786H59.8537C54.6801 68.8786 49.4529 70.0448 44.761 72.2696L1.78406 92.6157V86.5513Z" fill="#F2F2F2"/>
<path d="M53.4313 76.6654C53.5383 78.0648 55.5721 78.0648 55.6613 76.6654L56.7852 61.2175C56.7852 59.9795 55.7862 58.9747 54.5552 58.9747C53.3242 58.9747 52.3252 59.9795 52.3252 61.2175L53.4491 76.6654H53.4313Z" fill="#F7F7F7"/>
<path d="M76.338 14.0305C76.0347 13.8511 75.5887 13.7434 75 13.7434C74.4113 13.7434 73.9831 13.8511 73.662 14.0305C70.754 15.3044 70.0226 20.5793 70.0226 20.5793V23.127C70.0226 23.127 70.9681 19.6284 74.9821 19.6284C78.9962 19.6284 79.9417 23.127 79.9417 23.127V20.5793C79.9417 20.5793 79.2103 15.3044 76.3023 14.0305H76.338Z" fill="#2CA3E8"/>
<path d="M70.0404 79.4823C70.5922 79.4823 71.0395 77.9641 71.0395 76.0913C71.0395 74.2185 70.5922 72.7003 70.0404 72.7003C69.4887 72.7003 69.0414 74.2185 69.0414 76.0913C69.0414 77.9641 69.4887 79.4823 70.0404 79.4823Z" fill="#2CA3E8"/>
<path d="M71.0395 64.8059C71.0395 62.9399 70.5935 61.4149 70.0404 61.4149C69.4874 61.4149 69.0414 62.9399 69.0414 64.8059C69.0414 66.6718 69.4874 68.1969 70.0404 68.1969C70.5935 68.1969 71.0395 66.6718 71.0395 64.8059Z" fill="#2CA3E8"/>
<path d="M71.0395 53.5384C71.0395 51.6724 70.5935 50.1474 70.0404 50.1474C69.4874 50.1474 69.0414 51.6724 69.0414 53.5384C69.0414 55.4043 69.4874 56.9294 70.0404 56.9294C70.5935 56.9294 71.0395 55.4043 71.0395 53.5384Z" fill="#2CA3E8"/>
<path d="M71.0395 42.253C71.0395 40.387 70.5935 38.862 70.0404 38.862C69.4874 38.862 69.0414 40.387 69.0414 42.253C69.0414 44.1189 69.4874 45.644 70.0404 45.644C70.5935 45.644 71.0395 44.1189 71.0395 42.253Z" fill="#2CA3E8"/>
<path d="M71.0395 30.9855C71.0395 29.1196 70.5935 27.5945 70.0404 27.5945C69.4874 27.5945 69.0414 29.1196 69.0414 30.9855C69.0414 32.8515 69.4874 34.3765 70.0404 34.3765C70.5935 34.3765 71.0395 32.8515 71.0395 30.9855Z" fill="#2CA3E8"/>
<path d="M79.9595 79.4823C80.5113 79.4823 80.9586 77.9641 80.9586 76.0913C80.9586 74.2185 80.5113 72.7003 79.9595 72.7003C79.4077 72.7003 78.9604 74.2185 78.9604 76.0913C78.9604 77.9641 79.4077 79.4823 79.9595 79.4823Z" fill="#2CA3E8"/>
<path d="M78.9604 64.8059C78.9604 62.9399 79.4065 61.4149 79.9595 61.4149C80.5125 61.4149 80.9586 62.9399 80.9586 64.8059C80.9586 66.6718 80.5125 68.1969 79.9595 68.1969C79.4065 68.1969 78.9604 66.6718 78.9604 64.8059Z" fill="#2CA3E8"/>
<path d="M78.9604 53.5384C78.9604 51.6724 79.4065 50.1474 79.9595 50.1474C80.5125 50.1474 80.9586 51.6724 80.9586 53.5384C80.9586 55.4043 80.5125 56.9294 79.9595 56.9294C79.4065 56.9294 78.9604 55.4043 78.9604 53.5384Z" fill="#2CA3E8"/>
<path d="M78.9604 42.253C78.9604 40.387 79.4065 38.862 79.9595 38.862C80.5125 38.862 80.9586 40.387 80.9586 42.253C80.9586 44.1189 80.5125 45.644 79.9595 45.644C79.4065 45.644 78.9604 44.1189 78.9604 42.253Z" fill="#2CA3E8"/>
<path d="M78.9604 30.9855C78.9604 29.1196 79.4065 27.5945 79.9595 27.5945C80.5125 27.5945 80.9586 29.1196 80.9586 30.9855C80.9586 32.8515 80.5125 34.3765 79.9595 34.3765C79.4065 34.3765 78.9604 32.8515 78.9604 30.9855Z" fill="#2CA3E8"/>
</svg>
