<svg width="30" height="30" viewBox="0 0 30 30" fill="none" xmlns="http://www.w3.org/2000/svg">
<path d="M15 30C13.0302 30 11.0796 29.612 9.25975 28.8582C7.43986 28.1044 5.78628 26.9995 4.3934 25.6066C3.00052 24.2137 1.89563 22.5601 1.14181 20.7403C0.387986 18.9204 7.68215e-07 16.9698 5.96007e-07 15C2.48218e-07 11.0218 1.58035 7.20644 4.3934 4.3934C7.20644 1.58035 11.0218 -2.48218e-07 15 -5.96007e-07C16.9698 -7.68215e-07 18.9204 0.387984 20.7402 1.1418C22.5601 1.89562 24.2137 3.00052 25.6066 4.3934C28.4196 7.20644 30 11.0218 30 15C30 18.9782 28.4196 22.7936 25.6066 25.6066C22.7936 28.4196 18.9782 30 15 30ZM22.5 18L15 10.5L7.5 18L22.5 18Z" fill="white"/>
</svg>
