<svg width="48" height="48" viewBox="0 0 48 48" fill="none" xmlns="http://www.w3.org/2000/svg">
<path d="M46.308 28.8C46.5311 28.7997 46.7521 28.8435 46.9581 28.9291C47.1642 29.0146 47.3513 29.1401 47.5086 29.2983C47.6659 29.4565 47.7903 29.6442 47.8747 29.8508C47.959 30.0573 48.0016 30.2785 48 30.5016V38.1912C48.0016 38.4133 47.9594 38.6335 47.8758 38.8393C47.7922 39.045 47.6689 39.2323 47.5128 39.3903C47.3568 39.5483 47.1711 39.6741 46.9665 39.7603C46.7618 39.8465 46.5421 39.8915 46.32 39.8928C46.098 39.8915 45.8783 39.8465 45.6736 39.7603C45.469 39.6741 45.2833 39.5483 45.1273 39.3903C44.9712 39.2323 44.8479 39.045 44.7643 38.8393C44.6807 38.6335 44.6385 38.4133 44.64 38.1912V35.4912C40.2696 42.8256 32.1576 48 23.4168 48C12.8328 48 3.96244 41.4696 0.115243 31.404C-0.0462909 30.9846 -0.0361141 30.5185 0.143569 30.1066C0.323252 29.6947 0.657975 29.3701 1.07524 29.2032C1.93924 28.8648 2.91364 29.2992 3.24964 30.1752C6.60964 38.964 14.2608 44.5992 23.4168 44.5992C31.5072 44.5992 39.0648 39.3624 42.5856 32.2296L39.0552 32.2536C38.8332 32.2539 38.6132 32.2104 38.4079 32.1257C38.2027 32.0409 38.0161 31.9165 37.859 31.7596C37.7018 31.6027 37.5771 31.4163 37.4921 31.2111C37.407 31.006 37.3632 30.7861 37.3632 30.564C37.3575 30.1157 37.5299 29.6833 37.8427 29.362C38.1554 29.0407 38.5829 28.8567 39.0312 28.8504L46.308 28.8ZM24.588 0C35.1672 0 44.04 6.5304 47.8872 16.596C48.0488 17.0154 48.0386 17.4815 47.8589 17.8934C47.6792 18.3053 47.3445 18.6299 46.9272 18.7968C46.7208 18.8773 46.5004 18.916 46.2789 18.9106C46.0573 18.9053 45.8391 18.8559 45.6368 18.7655C45.4345 18.675 45.2522 18.5453 45.1004 18.3838C44.9487 18.2224 44.8305 18.0323 44.7528 17.8248C41.3928 9.036 33.7416 3.4008 24.5856 3.4008C16.4952 3.4008 8.93764 8.6376 5.41684 15.7704L8.94724 15.7464C9.16933 15.7461 9.38929 15.7896 9.59456 15.8743C9.79983 15.9591 9.98637 16.0835 10.1435 16.2404C10.3007 16.3973 10.4253 16.5837 10.5104 16.7889C10.5955 16.994 10.6392 17.2139 10.6392 17.436C10.645 17.8843 10.4726 18.3167 10.1598 18.638C9.84708 18.9593 9.41958 19.1433 8.97124 19.1496L1.69204 19.2C1.46895 19.2003 1.24799 19.1565 1.04194 19.0709C0.835883 18.9854 0.648804 18.8599 0.491497 18.7017C0.334191 18.5435 0.209772 18.3558 0.125421 18.1492C0.0410706 17.9427 -0.0015421 17.7215 4.26303e-05 17.4984V9.8088C4.26303e-05 8.868 0.751243 8.1072 1.68004 8.1072C2.60644 8.1072 3.36004 8.868 3.36004 9.8088V12.5088C7.73044 5.1744 15.8424 0 24.5832 0H24.588Z" fill="white"/>
</svg>
