<svg width="82" height="69" viewBox="0 0 82 69" fill="none" xmlns="http://www.w3.org/2000/svg">
<path d="M58.738 58.711C53.1138 64.3415 45.7113 67.8478 37.7918 68.6324C29.8723 69.4171 21.9257 67.4317 15.3059 63.0143C8.68616 58.597 3.80274 52.0211 1.48768 44.407C-0.827377 36.7929 -0.430842 28.6116 2.60973 21.2571C5.65029 13.9025 11.1468 7.82974 18.1627 4.07332C25.1787 0.316901 33.28 -0.890736 41.0865 0.65616C48.893 2.20306 55.9217 6.40878 60.975 12.5568C66.0284 18.7048 68.7937 26.4147 68.8 34.373H60.2C60.2052 28.4038 58.1405 22.6174 54.3575 17.9999C50.5746 13.3824 45.3076 10.2195 39.454 9.05015C33.6004 7.88083 27.5224 8.77744 22.2558 11.5872C16.9892 14.397 12.8598 18.946 10.5713 24.4591C8.28287 29.9723 7.97689 36.1084 9.70557 41.8219C11.4342 47.5353 15.0906 52.4726 20.0516 55.7924C25.0125 59.1121 30.9711 60.6089 36.912 60.0277C42.8529 59.4465 48.4085 56.8233 52.632 52.605L58.738 58.711ZM47.3 34.373H81.7L64.5 51.573L47.3 34.373Z" fill="#85DECE"/>
</svg>
