<svg width="52" height="65" viewBox="0 0 52 65" fill="none" xmlns="http://www.w3.org/2000/svg">
<path d="M26 0C17.0397 0 9.75 7.28975 9.75 16.25V26H6.5C4.77609 26 3.12279 26.6848 1.90381 27.9038C0.684819 29.1228 0 30.7761 0 32.5V58.5C0 60.2239 0.684819 61.8772 1.90381 63.0962C3.12279 64.3152 4.77609 65 6.5 65H45.5C47.2239 65 48.8772 64.3152 50.0962 63.0962C51.3152 61.8772 52 60.2239 52 58.5V32.5C52 30.7761 51.3152 29.1228 50.0962 27.9038C48.8772 26.6848 47.2239 26 45.5 26H42.25V16.25C42.25 7.28975 34.9603 0 26 0ZM16.25 16.25C16.25 10.8745 20.6245 6.5 26 6.5C31.3755 6.5 35.75 10.8745 35.75 16.25V26H16.25V16.25ZM29.25 51.0997V58.5H22.75V51.0997C21.6138 50.4491 20.7014 49.4693 20.1332 48.2897C19.565 47.11 19.3677 45.7858 19.5672 44.4918C19.7668 43.1977 20.3538 41.9945 21.251 41.0408C22.1481 40.0871 23.3133 39.4277 24.5928 39.1495C25.5431 38.9394 26.5285 38.9452 27.4763 39.1667C28.4241 39.3881 29.3101 39.8195 30.069 40.4289C30.8278 41.0384 31.4402 41.8104 31.861 42.6881C32.2817 43.5658 32.5001 44.5267 32.5 45.5C32.4981 46.6367 32.1967 47.7528 31.6262 48.7358C31.0556 49.7189 30.236 50.5343 29.25 51.0997Z" fill="url(#paint0_linear_4_74)"/>
<defs>
<linearGradient id="paint0_linear_4_74" x1="26" y1="0" x2="26" y2="65" gradientUnits="userSpaceOnUse">
<stop stop-color="#EFEC01"/>
<stop offset="1" stop-color="#FBB801"/>
</linearGradient>
</defs>
</svg>
